<svg xmlns="http://www.w3.org/2000/svg" width="30" height="30" viewBox="0 0 30 30">
  <g id="Favorites" transform="translate(-399 -1460)">
    <g id="coracao">
      <circle id="Base" cx="15" cy="15" r="15" transform="translate(399 1460)" fill="#f3f4f7"/>
      <g id="coracao-2" data-name="coracao" transform="translate(419 1737.304)">
        <g id="Group_6" data-name="Group 6" transform="translate(-16 -270.486)">
          <path id="Path_7" data-name="Path 7" d="M15.734,35.514h0a6.171,6.171,0,0,0-4.754,2.2,6.088,6.088,0,0,0-4.754-2.2A6.227,6.227,0,0,0,0,41.741c0,5.893,10.286,11.648,10.7,11.87a.5.5,0,0,0,.556,0c.417-.222,10.7-5.893,10.7-11.87A6.227,6.227,0,0,0,15.734,35.514ZM10.981,52.5c-1.612-.945-9.869-5.977-9.869-10.758a5.115,5.115,0,0,1,5.115-5.115,5,5,0,0,1,4.281,2.307.584.584,0,0,0,.945,0,5.115,5.115,0,0,1,9.4,2.808C20.849,46.578,12.593,51.582,10.981,52.5Z" transform="translate(0 -35.514)" fill="#7e7f82"/>
        </g>
      </g>
    </g>
  </g>
</svg>
