<svg xmlns="http://www.w3.org/2000/svg" width="19" height="15" viewBox="0 0 19 15">
  <g id="email" transform="translate(0 -64)">
    <g id="Group_20" data-name="Group 20" transform="translate(0 64)">
      <path id="Path_12" data-name="Path 12" d="M17.417,64H1.583A1.628,1.628,0,0,0,0,65.667V77.333A1.628,1.628,0,0,0,1.583,79H17.417A1.628,1.628,0,0,0,19,77.333V65.667A1.628,1.628,0,0,0,17.417,64Zm-15.833.833H17.417a.72.72,0,0,1,.164.035c-1.371,1.321-5.916,5.7-7.507,7.206a.767.767,0,0,1-1.149,0c-1.59-1.508-6.136-5.886-7.507-7.206A.724.724,0,0,1,1.583,64.833Zm-.792,12.5V65.667a.842.842,0,0,1,.044-.23C1.885,66.447,5.057,69.5,7.113,71.47c-2.05,1.853-5.222,5.019-6.28,6.081A.84.84,0,0,1,.792,77.333Zm16.625.833H1.583a.724.724,0,0,1-.178-.038c1.093-1.1,4.285-4.281,6.3-6.094l.691.659a1.525,1.525,0,0,0,2.209,0l.692-.659c2.014,1.813,5.206,5,6.3,6.094A.723.723,0,0,1,17.417,78.167Zm.792-.833a.842.842,0,0,1-.042.217c-1.058-1.062-4.23-4.228-6.28-6.081,2.057-1.968,5.228-5.022,6.277-6.033a.842.842,0,0,1,.044.23Z" transform="translate(0 -64)" fill="#ea3033"/>
    </g>
  </g>
</svg>
