<svg id="whatsapp" xmlns="http://www.w3.org/2000/svg" width="17" height="17" viewBox="0 0 17 17">
  <g id="Group_19" data-name="Group 19">
    <path id="Path_10" data-name="Path 10" d="M8.5,0A8.5,8.5,0,0,0,1.287,13C.951,14.175.345,16.4.338,16.424a.327.327,0,0,0,.412.4l3.369-1.036A8.5,8.5,0,1,0,8.5,0Zm0,16.346a7.827,7.827,0,0,1-4.162-1.194.327.327,0,0,0-.174-.05.332.332,0,0,0-.1.014l-2.942.906c.216-.789.6-2.2.83-2.985a.328.328,0,0,0-.04-.268A7.847,7.847,0,1,1,8.5,16.346Z" fill="#ea3033"/>
    <path id="Path_11" data-name="Path 11" d="M20.4,16.7c-.607-.317-1.123-.636-1.5-.868-.288-.177-.5-.305-.648-.377a.782.782,0,0,0-.872.058.314.314,0,0,0-.041.047,4.466,4.466,0,0,1-1.19,1.257,8,8,0,0,1-2.021-1.233,4.16,4.16,0,0,1-1.6-1.9c.6-.578.81-.942.81-1.355A8.572,8.572,0,0,0,12.09,9.936c-.192-.18-.623-.208-1.283-.085a.339.339,0,0,0-.168.085c-.08.075-1.949,1.871-1.061,4.047.975,2.388,3.477,5.164,6.667,5.615a7.327,7.327,0,0,0,1.021.077,2.975,2.975,0,0,0,3.3-2.655A.3.3,0,0,0,20.4,16.7Zm-4.055,2.287c-3.373-.477-5.5-3.626-6.151-5.225a3.28,3.28,0,0,1,.846-3.319,2.628,2.628,0,0,1,.608-.04,10.89,10.89,0,0,1,1.033,1.922c0,.163-.056.389-.725,1.02a.3.3,0,0,0-.1.219c0,1.622,3.63,3.872,4.273,3.872.559,0,1.288-.886,1.7-1.463a.326.326,0,0,1,.122.036c.118.056.323.182.583.342.342.211.8.491,1.334.781C19.628,18.236,18.947,19.354,16.343,18.986Z" transform="translate(-6.317 -6.312)" fill="#ea3033"/>
  </g>
</svg>
