<svg xmlns="http://www.w3.org/2000/svg" width="30" height="30" viewBox="0 0 30 30">
  <g id="youtube" transform="translate(-1460 -10)">
    <path id="Path_13" data-name="Path 13" d="M15,0A15,15,0,1,1,0,15,15,15,0,0,1,15,0Z" transform="translate(1460 10)" fill="#f7f7f7"/>
    <g id="youtube-2" data-name="youtube" transform="translate(1465 -247.829)">
      <path id="Path_31" data-name="Path 31" d="M196.984,109.231l-4.748-2.6a.872.872,0,0,0-1.291.765v5.151a.87.87,0,0,0,1.285.768l4.748-2.553a.872.872,0,0,0,.005-1.535ZM192.2,111.9v-3.851l3.549,1.942Zm0,0" transform="translate(-183.727 162.791)" fill="#ea3033"/>
      <path id="Path_32" data-name="Path 32" d="M19.853,3.85V3.84a5.165,5.165,0,0,0-.883-2.5A3.151,3.151,0,0,0,16.815.253l-.1-.013-.035,0C14.037.028,10.044,0,10,0H10C9.958,0,5.963.028,3.3.236l-.033,0L3.168.252A3.079,3.079,0,0,0,1.023,1.373,5.417,5.417,0,0,0,.149,3.828l0,.022C.141,3.922,0,5.639,0,7.363V8.975c0,1.724.141,3.441.147,3.513V12.5a5.117,5.117,0,0,0,.878,2.469,3.209,3.209,0,0,0,2.228,1.075c.081.01.151.018.2.028l.046.007c1.527.157,6.314.233,6.517.237h.012c.038,0,4.033-.028,6.677-.236l.035,0,.112-.014a3,3,0,0,0,2.124-1.094,5.407,5.407,0,0,0,.874-2.456l0-.022c.006-.072.147-1.789.147-3.513V7.362c0-1.724-.141-3.441-.147-3.513ZM18.828,8.974c0,1.6-.129,3.239-.142,3.39a4.2,4.2,0,0,1-.576,1.748,1.867,1.867,0,0,1-1.382.691l-.125.015c-2.557.2-6.4.23-6.577.23-.2,0-4.915-.081-6.4-.23-.077-.013-.158-.023-.244-.034a2.111,2.111,0,0,1-1.5-.674L1.879,14.1a3.82,3.82,0,0,1-.564-1.731c-.009-.115-.142-1.776-.142-3.394V7.36c0-1.594.129-3.235.142-3.389A4.115,4.115,0,0,1,1.89,2.222,1.961,1.961,0,0,1,3.3,1.505l.1-.013c2.595-.2,6.465-.23,6.6-.23s4.008.031,6.579.23l.1.013a2.03,2.03,0,0,1,1.436.7l0,.005a3.884,3.884,0,0,1,.564,1.756c.009.107.142,1.774.142,3.4Zm0,0" transform="translate(0 264.829)" fill="#ea3033"/>
    </g>
  </g>
</svg>
